<?xml version="1.0" encoding="iso-8859-1"?>
<!-- Generator: Adobe Illustrator 16.0.0, SVG Export Plug-In . SVG Version: 6.00 Build 0)  -->
<!DOCTYPE svg PUBLIC "-//W3C//DTD SVG 1.1//EN" "http://www.w3.org/Graphics/SVG/1.1/DTD/svg11.dtd">
<svg version="1.1" id="Capa_1" xmlns="http://www.w3.org/2000/svg" xmlns:xlink="http://www.w3.org/1999/xlink" x="0px" y="0px"
	 width="612px" height="612px" viewBox="0 0 612 612" style="enable-background:new 0 0 612 612;" xml:space="preserve">
<g>
	<g id="_x35__28_">
		<g>
			<path d="M535.5,0h-459C34.521,0,0,37.657,0,79.656v456.303C0,577.957,34.023,612,76.003,612H532c41.979,0,80-34.502,80-76.5v-459
				C612,34.501,577.479,0,535.5,0z M459,420.75H153c-10.557,0-19.125-8.568-19.125-19.125S142.443,382.5,153,382.5h306
				c10.557,0,19.125,8.568,19.125,19.125S469.557,420.75,459,420.75z M459,306H153c-10.557,0-19.125-8.568-19.125-19.125
				S142.443,267.75,153,267.75h306c10.557,0,19.125,8.568,19.125,19.125S469.557,306,459,306z M459,191.25H153
				c-10.557,0-19.125-8.568-19.125-19.125S142.443,153,153,153h306c10.557,0,19.125,8.568,19.125,19.125S469.557,191.25,459,191.25z
				"/>
		</g>
	</g>
</g>
<g>
</g>
<g>
</g>
<g>
</g>
<g>
</g>
<g>
</g>
<g>
</g>
<g>
</g>
<g>
</g>
<g>
</g>
<g>
</g>
<g>
</g>
<g>
</g>
<g>
</g>
<g>
</g>
<g>
</g>
</svg>
