<?xml version="1.0" encoding="UTF-8" standalone="no"?>
<!-- Created with Inkscape (http://www.inkscape.org/) -->

<svg
   xmlns:dc="http://purl.org/dc/elements/1.1/"
   xmlns:cc="http://creativecommons.org/ns#"
   xmlns:rdf="http://www.w3.org/1999/02/22-rdf-syntax-ns#"
   xmlns:svg="http://www.w3.org/2000/svg"
   xmlns="http://www.w3.org/2000/svg"
   xmlns:sodipodi="http://sodipodi.sourceforge.net/DTD/sodipodi-0.dtd"
   xmlns:inkscape="http://www.inkscape.org/namespaces/inkscape"
   id="svg9576"
   version="1.1"
   inkscape:version="0.48.2 r9819"
   width="1000"
   height="1170.9935"
   xml:space="preserve"
   sodipodi:docname="2012.5-Annual-Report.pdf"><metadata
     id="metadata9582"><rdf:RDF><cc:Work
         rdf:about=""><dc:format>image/svg+xml</dc:format><dc:type
           rdf:resource="http://purl.org/dc/dcmitype/StillImage" /><dc:title></dc:title></cc:Work></rdf:RDF></metadata><defs
     id="defs9580"><clipPath
       clipPathUnits="userSpaceOnUse"
       id="clipPath9590"><path
         d="m 88.32,654.176 109.748,0 0,130.225 -109.748,0 0,-130.225 z"
         id="path9592"
         inkscape:connector-curvature="0" /></clipPath></defs><sodipodi:namedview
     pagecolor="#ffffff"
     bordercolor="#666666"
     borderopacity="1"
     objecttolerance="10"
     gridtolerance="10"
     guidetolerance="10"
     inkscape:pageopacity="0"
     inkscape:pageshadow="2"
     inkscape:window-width="1058"
     inkscape:window-height="1038"
     id="namedview9578"
     showgrid="false"
     fit-margin-left="0.5"
     fit-margin-bottom="0.5"
     fit-margin-top="0.5"
     fit-margin-right="0.5"
     inkscape:zoom="0.39971738"
     inkscape:cx="641.63822"
     inkscape:cy="350.57039"
     inkscape:window-x="858"
     inkscape:window-y="-21"
     inkscape:window-maximized="0"
     inkscape:current-layer="g9584" /><g
     id="g9584"
     inkscape:groupmode="layer"
     inkscape:label="2012.5-Annual-Report"
     transform="matrix(1.25,0,0,-1.25,-96.630495,1980.6749)"><g
       id="g9586"
       transform="matrix(9.3330686,0,0,9.3330686,-843.51054,-5597.0329)"><g
         id="g9588"
         clip-path="url(#clipPath9590)"><g
           id="g9594"
           transform="translate(117.2555,698.7247)"><path
             d="m 0,0 c 0.068,1.28 0.966,4.857 2.862,10.158 3.55,9.947 11.08,24.424 25.031,28.946 l 0.023,-3.908 c 0,0 -13.484,-4.312 -23.763,-25.541 C 2.085,5.383 0.676,0.988 0.101,-0.022 L 0,0 z M 19.165,3.356 C 33.835,6.926 36.963,23.899 36.953,37.743 36.947,48.058 35.202,56.639 35.202,56.639 2.485,43.973 -4.882,31.963 -4.947,23.765 c 0,-3.037 0.864,-5.496 1.557,-6.529 l 0.057,0.029 c -0.242,0.848 -0.588,2.521 -0.588,3.911 -0.068,7.285 6.205,17.933 35.529,29.286 0,0 1.558,-7.627 1.571,-16.784 C 33.198,21.881 30.827,7.585 19.081,3.424 l 0.084,-0.068"
             style="fill:#0e8f32;fill-opacity:1;fill-rule:nonzero;stroke:none"
             id="path9596"
             inkscape:connector-curvature="0" /><g
             id="g9598"
             transform="translate(36.5698,59.1625)"
             style="fill:#0c247a;fill-opacity:1"><path
               d="m 0,0 c -12.47,-4.752 -21.96,-9.495 -28.85,-14.314 -6.948,-4.859 -11.314,-9.79 -13.351,-15.08 -0.492,-1.275 -1.002,-3.065 -1.093,-4.85 -1.517,1.268 -1.952,1.629 -2.66,2.22 -2.208,1.842 -4.555,3.955 -4.555,7.34 0,3.383 2.347,5.499 4.555,7.336 4.801,4.002 31.665,26.383 33.74,28.116 0.66,0.551 1.066,0.778 1.624,0.778 0.556,0 0.962,-0.227 1.621,-0.778 2.074,-1.733 28.942,-24.114 33.743,-28.116 2.204,-1.837 4.549,-3.953 4.549,-7.336 0,-3.385 -2.345,-5.498 -4.549,-7.34 -4.801,-4.002 -31.669,-26.382 -33.743,-28.11 -0.659,-0.555 -1.065,-0.782 -1.621,-0.782 -0.558,0 -0.964,0.227 -1.624,0.782 -0.44,0.364 -1.229,1.027 -3.449,2.875 6.785,2.057 11.635,7.147 14.5,14.371 2.267,5.716 3.417,12.938 3.417,21.467 C 2.254,-10.828 0.477,-1.967 0,0"
               style="fill:#0c247a;fill-opacity:1;fill-rule:nonzero;stroke:none"
               id="path9600"
               inkscape:connector-curvature="0" /></g><g
             id="g9602"
             transform="translate(-4.2456,-18.3172)"
             style="fill:#0e8f32;fill-opacity:1"><path
               d="m 0,0 c -2.638,0 -4.952,-1.676 -4.952,-3.106 0,-1.214 1.4,-1.74 2.717,-1.74 2.529,0 4.931,1.581 4.931,3.15 C 2.696,-0.715 1.597,0 0,0"
               style="fill:#0e8f32;fill-opacity:1;fill-rule:nonzero;stroke:none"
               id="path9604"
               inkscape:connector-curvature="0" /></g><g
             id="g9606"
             transform="translate(52.6459,-25.7265)"
             style="fill:#0c247a;fill-opacity:1"><path
               d="m 0,0 -9.125,20.273 -5.27,0 0,-24.126 3.65,0 0,20.072 0.081,0 9.04,-20.072 3.284,0 9.045,20.072 0.08,0 0,-20.072 3.649,0 0,24.126 -5.27,0 L 0.016,0 0,0 z m -42.276,20.273 9.627,0 c 8.718,0 14.216,-4.5 14.216,-12.068 0,-7.208 -5.208,-12.058 -14.216,-12.058 l -9.627,0 0,24.126 z m 3.851,-21.423 5.797,0 c 7.041,0 10.341,3.962 10.341,9.332 0,5.744 -3.573,9.388 -10.26,9.388 l -5.878,0 0,-18.72 z m -19.296,18.518 -0.059,0 -9.367,-21.221 -4.05,0 11.314,24.126 4.409,0 11.314,-24.126 -4.335,0 -9.226,21.221"
               style="fill:#0c247a;fill-opacity:1;fill-rule:nonzero;stroke:none"
               id="path9608"
               inkscape:connector-curvature="0" /></g><g
             id="g9610"
             transform="translate(40.5295,0.286)"><path
               d="m 0,0 c -1.286,0 -2.469,1.009 -2.469,2.476 0,1.427 1.14,2.477 2.476,2.477 C 1.441,4.953 2.5,3.82 2.491,2.463 2.485,1.09 1.406,0 0,0 m 0.022,4.654 c -1.236,0 -2.191,-0.981 -2.191,-2.178 0,-1.223 0.981,-2.177 2.176,-2.177 1.231,0 2.179,0.962 2.186,2.172 C 2.198,3.666 1.265,4.654 0.022,4.654 M -0.037,3.88 c 0.357,0 0.529,0 0.714,-0.064 C 0.988,3.704 1.147,3.448 1.147,3.185 1.147,2.796 0.838,2.571 0.458,2.515 0.789,2.402 0.892,2.239 0.953,1.901 1.023,1.494 1.044,1.343 1.182,1.093 l -0.518,0 C 0.596,1.219 0.568,1.343 0.541,1.475 0.526,1.538 0.479,1.85 0.464,1.919 0.375,2.333 0.128,2.382 -0.312,2.389 l -0.222,0 0,-1.296 -0.447,0 0,2.787 0.944,0 z m -0.489,-1.166 0.516,0 c 0.192,0 0.702,-0.005 0.702,0.44 0,0.123 -0.055,0.237 -0.144,0.305 -0.131,0.107 -0.282,0.107 -0.654,0.107 l -0.42,0 0,-0.852"
               style="fill:#000000;fill-opacity:1;fill-rule:nonzero;stroke:none"
               id="path9612"
               inkscape:connector-curvature="0" /></g></g></g></g></g></svg>