<?xml version="1.0" encoding="utf-8"?>
<!-- Generator: Adobe Illustrator 22.0.1, SVG Export Plug-In . SVG Version: 6.00 Build 0)  -->
<svg version="1.1" id="Layer_1" xmlns="http://www.w3.org/2000/svg" xmlns:xlink="http://www.w3.org/1999/xlink" x="0px" y="0px"
	 viewBox="0 0 703.8 132.9" style="enable-background:new 0 0 703.8 132.9;" xml:space="preserve">
<style type="text/css">
	.st0{fill:#06272E;}
	.st1{fill:#02A24A;}
</style>
<path class="st0" d="M0.3,5.3h47c16,0,23,10.7,23,19.7c0,9.6-5.7,16.1-13.2,17.8c8.4,1.3,14.7,8.9,14.7,18.9c0,10.8-7.3,21-22.9,21
	H0.3V5.3z M41.8,34.1c2.4,0,4.6-2.2,4.6-5c0-2.7-2.2-4.8-4.6-4.8H23.7v9.7H41.8z M42.5,63.7c3.4,0,5.5-2.3,5.5-5.2
	c0-2.8-2.1-5.3-5.5-5.3H23.7v10.6H42.5z"/>
<path class="st0" d="M119.3,4.1c23.9,0,42.4,16.2,42.4,40s-18.4,40-42.4,40s-42.4-16.2-42.4-40S95.4,4.1,119.3,4.1z M119.3,24.7
	c-11.3,0-18.6,8.6-18.6,19.4s7.3,19.4,18.6,19.4s18.6-8.6,18.6-19.4S130.5,24.7,119.3,24.7z"/>
<path class="st0" d="M290.8,57.9h-8.5v24.8h-23.4V5.3h41.3c18.1,0,27.8,12.1,27.8,26.6c0,13.3-7.8,20.4-13.9,23.4l14,27.4h-26.7
	L290.8,57.9z M296.6,24.8h-14.3v13.6h14.3c3.9,0,7.7-2.6,7.7-6.8C304.2,27.4,300.5,24.8,296.6,24.8z"/>
<path class="st0" d="M353,25.7h-20.8V5.3h64.9v20.4h-20.7v57H353V25.7z"/>
<path class="st0" d="M473.9,33.9l-17.3,48.8h-10.4l-17.3-48.8v48.8h-23.4V5.3h32.4l13.6,39.5l13.6-39.5h32.4v77.4h-23.4V33.9z"/>
<path class="st0" d="M559.6,72.7h-29.7l-3,10h-25.4L530,5.3h29.5L588,82.7h-25.4L559.6,72.7z M535.9,53.2h17.6L544.7,26L535.9,53.2z
	"/>
<path class="st0" d="M592.2,5.3h23.4v57H645v20.4h-52.8V5.3z"/>
<path class="st0" d="M659.4,25.7h-20.8V5.3h64.9v20.4h-20.7v57h-23.4V25.7z"/>
<g>
	<path class="st0" d="M210.2,1c-23.7,0-42.9,19.2-42.9,42.9c0,23.7,19.2,42.9,42.9,42.9S253,67.5,253,43.9C253,20.2,233.9,1,210.2,1
		z M225.4,28.1v10.7c0,1.2-0.5,2.3-1.4,3.2l-13.7,12.6l-7.5-6.9l0.9-0.9l4-3.7l2.7-2.5l2.7-2.5l11.2-10.3
		C224.7,27.4,225.4,27.6,225.4,28.1z M202.6,13.8l6.1,5.6l1.5,1.4l1.5-1.4l6.1-5.6v12.3c0,0.5-0.1,1-0.3,1.4
		c-0.1,0.4-0.3,0.7-0.6,1.1c-0.2,0.2-0.3,0.4-0.6,0.6l-6.1,5.6l-0.1,0l0,0l0,0l-0.1,0l-6.1-5.6c-0.2-0.2-0.4-0.4-0.6-0.6
		c-0.3-0.3-0.5-0.7-0.6-1.1c-0.2-0.5-0.3-1-0.3-1.4V13.8z M194.9,27.9c0-0.5,0.7-0.7,1.1-0.4l6.8,6.2l4.4,4.1l-7.7,7.1l-3.1-2.8
		c-0.3-0.3-0.6-0.6-0.8-0.9c-0.4-0.7-0.7-1.4-0.7-2.2V27.9z M188.8,54.9c-0.9-0.9-1.4-2-1.4-3.1V40.8c0-0.5,0.7-0.7,1.1-0.4
		L206.4,57c0.2,0.2,0.5,0.5,0.7,0.7l-7.6,7L188.8,54.9z M233,51.7c0,1.2-0.5,2.3-1.4,3.1l-19.6,18c-1,0.9-2.7,0.9-3.7,0l-5.9-5.4
		l29.5-27.1c0.4-0.4,1.1-0.1,1.1,0.4V51.7z"/>
</g>
<polygon class="st1" points="318,104.5 307.2,104.5 322.2,118 307.1,131.4 317.9,131.5 329,121.7 329,114.4 "/>
<g>
	<path class="st0" d="M367.2,132.2v-23.4l-9.7,23.4H356l-9.7-23.4v23.4h-3.5v-28.5h5.1l8.8,21.4l8.9-21.4h5.1v28.5H367.2z"/>
	<path class="st0" d="M397.8,132.2l-2.5-6.3h-14.2l-2.5,6.3h-4.1l11.4-28.5h4.4l11.5,28.5H397.8z M388.2,107.4l-6.1,15.3h12.1
		L388.2,107.4z"/>
	<path class="st0" d="M404.2,128.2l2.1-2.7c1.9,2.1,5,4.1,9,4.1c5.1,0,6.7-2.7,6.7-4.9c0-7.3-16.9-3.3-16.9-13.5
		c0-4.7,4.2-7.9,9.8-7.9c4.4,0,7.7,1.5,10.1,4l-2.1,2.6c-2.1-2.3-5.1-3.4-8.2-3.4c-3.4,0-5.9,1.8-5.9,4.5c0,6.4,16.9,2.7,16.9,13.4
		c0,4.1-2.8,8.4-10.5,8.4C410.2,132.7,406.5,130.8,404.2,128.2z"/>
	<path class="st0" d="M437.9,132.2v-25.3h-9v-3.2h21.6v3.2h-9.1v25.3H437.9z"/>
	<path class="st0" d="M454.8,132.2v-28.5h18.7v3.2h-15.1v9.2h14.8v3.2h-14.8v9.8h15.1v3.2H454.8z"/>
	<path class="st0" d="M495.5,132.2l-7.3-11.3h-5.7v11.3H479v-28.5h11.4c5.2,0,8.9,3.3,8.9,8.6c0,5.1-3.5,7.9-7.4,8.3l7.7,11.6H495.5
		z M495.7,112.3c0-3.2-2.3-5.4-5.7-5.4h-7.5v10.9h7.5C493.4,117.7,495.7,115.5,495.7,112.3z"/>
	<path class="st0" d="M502.8,128.2l2.1-2.7c1.9,2.1,5,4.1,9,4.1c5.1,0,6.7-2.7,6.7-4.9c0-7.3-16.9-3.3-16.9-13.5
		c0-4.7,4.2-7.9,9.8-7.9c4.4,0,7.7,1.5,10.1,4l-2.1,2.6c-2.1-2.3-5.1-3.4-8.2-3.4c-3.4,0-5.9,1.8-5.9,4.5c0,6.4,16.9,2.7,16.9,13.4
		c0,4.1-2.8,8.4-10.5,8.4C508.7,132.7,505.1,130.8,502.8,128.2z"/>
	<path class="st0" d="M537.2,118c0-8.4,5.7-14.7,14.1-14.7c8.4,0,14.1,6.3,14.1,14.7c0,8.4-5.7,14.7-14.1,14.7
		C542.9,132.7,537.2,126.4,537.2,118z M561.8,118c0-6.7-4.1-11.6-10.5-11.6c-6.4,0-10.5,4.9-10.5,11.6c0,6.6,4.1,11.6,10.5,11.6
		C557.7,129.5,561.8,124.6,561.8,118z"/>
	<path class="st0" d="M571,132.2v-28.5h18.7v3.2h-15.1v9.2h14.8v3.2h-14.8v13H571z"/>
	<path class="st0" d="M627.7,132.2v-23.4l-9.7,23.4h-1.5l-9.7-23.4v23.4h-3.5v-28.5h5.1l8.8,21.4l8.9-21.4h5.1v28.5H627.7z"/>
	<path class="st0" d="M658.4,132.2l-2.5-6.3h-14.2l-2.5,6.3h-4.1l11.4-28.5h4.4l11.5,28.5H658.4z M648.8,107.4l-6.1,15.3h12.1
		L648.8,107.4z"/>
	<path class="st0" d="M666.3,132.2v-28.5h3.5V129H683v3.2H666.3z"/>
	<path class="st0" d="M690.9,132.2v-25.3h-9v-3.2h21.6v3.2h-9.1v25.3H690.9z"/>
</g>
</svg>
