<?xml version="1.0" encoding="UTF-8" standalone="no"?>
<!-- Created with Inkscape (http://www.inkscape.org/) -->
<svg
   xmlns:svg="http://www.w3.org/2000/svg"
   xmlns="http://www.w3.org/2000/svg"
   version="1.0"
   width="425"
   height="193"
   id="svg2"
   xml:space="preserve"><defs
     id="defs5" /><g
     transform="matrix(1.25,0,0,-1.25,-619.48241,88.831272)"
     id="g11"><path
       d="M 593.69068,7.94959 C 603.60524,7.94959 609.63455,6.2037764 612.67235,2.4806087 C 614.32555,0.4523159 615.1591,-2.2381821 615.17762,-5.6510857 C 615.18688,-7.5450852 614.94608,-9.6613633 614.45985,-12.018443 L 607.66645,-44.841592 C 606.7264,-49.379782 606.15681,-52.852886 606.1707,-55.733247 C 606.17533,-56.645516 606.26332,-57.492953 606.39298,-58.289452 C 603.66544,-58.289452 589.92584,-58.289452 587.8003,-58.289452 C 587.79567,-58.090327 587.76788,-57.895833 587.76788,-57.687447 C 587.75862,-56.32599 587.86513,-54.89044 587.98553,-53.399321 L 588.17539,-50.708823 L 587.14735,-50.708823 L 586.74447,-51.347874 C 583.40566,-56.714978 575.82967,-60.030635 569.33728,-60.030635 C 563.95628,-60.030635 560.10345,-58.655285 557.88066,-55.927741 C 555.43097,-52.922348 554.84749,-48.212819 556.13948,-41.938077 C 558.67716,-29.684966 564.24802,-24.498464 578.21916,-21.363409 C 578.22842,-21.363409 587.4993,-19.251761 587.4993,-19.251761 C 593.00069,-18.033859 595.65878,-15.607317 596.64051,-10.860742 C 597.17305,-8.2582292 596.88594,-6.2438288 595.76991,-4.8731104 C 594.73725,-3.6089005 593.07942,-2.9698493 590.84737,-2.9698493 C 585.88315,-2.9698493 583.23432,-5.5399464 581.59965,-11.925827 C 579.88162,-11.925827 567.72576,-11.925827 565.00747,-11.925827 C 569.47157,5.3054001 584.78564,7.94959 593.69068,7.94959 z M 593.48693,-25.846028 C 593.48693,-25.846028 593.11183,-26.188708 592.39406,-26.471187 C 591.21783,-26.925006 588.61069,-27.346409 586.99917,-27.749289 C 585.75348,-28.064184 584.34109,-28.420756 582.82218,-29.064438 C 578.77023,-30.777836 576.68173,-33.588735 575.60276,-38.756714 C 574.9776,-41.775999 575.34343,-44.248849 576.6771,-45.883524 C 577.67273,-47.110687 579.14532,-47.754369 580.91892,-47.754369 C 588.16613,-47.754369 590.43986,-40.822053 591.51884,-35.598505 L 593.53787,-25.846028 L 593.48693,-25.846028 z M 591.51884,-35.598505 L 591.51884,-35.598505"
       id="path157"
       style="fill:#231f20;fill-opacity:1;fill-rule:nonzero;stroke:none" /><path
       d="M 660.12885,-52.496314 C 656.20656,-47.680276 655.43321,-40.104278 658.14223,-26.614742 C 664.05114,2.7630879 675.21601,7.94959 684.93144,7.94959 C 689.55299,7.94959 696.50383,6.236192 697.32348,-1.8677176 L 697.45314,-3.1272967 L 698.80071,-3.1272967 C 698.80071,-3.1272967 700.37981,4.4950091 700.72712,6.1945147 C 702.55629,6.1945147 716.08287,6.1945147 718.78726,6.1945147 C 718.12969,3.0316746 705.37182,-58.289452 705.37182,-58.289452 C 702.18583,-73.696142 692.29906,-81.369386 674.15093,-81.369386 C 657.3411,-81.369386 654.8451,-71.454832 654.46537,-68.389238 C 654.32182,-67.222275 654.71081,-63.781587 654.71081,-63.781587 C 656.64648,-63.781587 669.83039,-63.781587 672.28934,-63.781587 C 672.28934,-63.795479 672.28934,-63.795479 672.28934,-63.795479 C 672.29861,-65.365322 672.41901,-67.671464 672.94692,-68.324407 C 673.67396,-69.218153 674.27596,-70.273976 677.06834,-70.273976 C 680.76835,-70.273976 684.31092,-69.208891 686.03821,-60.850287 L 689.02971,-46.37902 L 687.58953,-46.37902 L 687.18665,-47.064379 C 683.58851,-53.292813 676.8831,-56.44176 669.81649,-56.44176 C 665.46817,-56.44176 662.29144,-55.159027 660.12885,-52.496314 z M 678.05933,-25.188454 C 676.08661,-34.751067 676.16996,-38.423296 678.10564,-40.798899 C 679.06421,-41.979755 680.49976,-42.549344 682.48638,-42.549344 C 687.97851,-42.549344 690.65512,-39.215164 693.4475,-25.758043 C 695.43874,-16.121337 695.64713,-9.9994121 693.73924,-7.6515937 C 692.80381,-6.5124155 691.43309,-5.9474573 689.54373,-5.9474573 C 683.87099,-5.9474573 680.84244,-11.731333 678.05933,-25.188454"
       id="path159"
       style="fill:#231f20;fill-opacity:1;fill-rule:nonzero;stroke:none" /><path
       d="M 747.74832,6.1945147 C 747.10464,3.0872443 734.84227,-56.228743 734.4116,-58.289452 C 732.55928,-58.289452 717.61104,-58.289452 714.85571,-58.289452 C 715.50402,-55.17292 727.78029,4.1338063 728.21095,6.1945147 C 730.05864,6.1945147 745.00225,6.1945147 747.74832,6.1945147"
       id="path161"
       style="fill:#231f20;fill-opacity:1;fill-rule:nonzero;stroke:none" /><path
       d="M 783.65559,27.709237 C 783.00264,24.546397 766.29933,-56.196328 765.8594,-58.289452 C 764.00708,-58.289452 749.0681,-58.289452 746.30814,-58.289452 C 746.96108,-55.11735 763.66903,25.620744 764.10433,27.709237 C 765.96591,27.709237 780.90026,27.709237 783.65559,27.709237"
       id="path163"
       style="fill:#231f20;fill-opacity:1;fill-rule:nonzero;stroke:none" /><path
       d="M 815.00614,27.709237 C 814.34393,24.546397 797.64062,-56.196328 797.19606,-58.289452 C 795.34837,-58.289452 780.3955,-58.289452 777.64943,-58.289452 C 778.31164,-55.11735 795.01958,25.620744 795.45025,27.709237 C 797.3072,27.709237 812.26007,27.709237 815.00614,27.709237"
       id="path165"
       style="fill:#231f20;fill-opacity:1;fill-rule:nonzero;stroke:none" /><path
       d="M 662.91196,7.94959 C 656.50293,7.94959 648.88062,3.4623395 645.15746,-3.7431939 L 644.7731,-4.4887535 L 643.34218,-4.4887535 C 643.34218,-4.4887535 645.06021,3.8235423 645.54644,6.1945147 C 645.18061,6.1945147 644.59713,6.1945147 643.87009,6.1945147 L 643.87009,6.2037764 C 641.74455,6.2037764 628.00495,6.2037764 625.27278,6.2037764 C 625.40707,5.3980162 625.49042,4.5552096 625.49506,3.6383101 C 625.50895,1.5683401 625.21258,-0.8211556 624.69393,-3.692255 C 621.07264,-21.20133 613.881,-55.927741 613.39476,-58.289452 C 616.14546,-58.289452 631.0937,-58.289452 632.95528,-58.289452 C 634.2056,-52.232358 640.30437,-22.706342 640.30437,-22.706342 C 642.14743,-13.824457 647.35709,-9.6891481 656.68353,-9.6891481 C 658.29505,-9.6891481 659.70745,-9.7771334 661.10132,-9.9808889 C 661.53661,-7.8877648 664.26416,5.3054001 664.80596,7.94959 C 663.85665,7.94959 662.91196,7.94959 662.91196,7.94959"
       id="path167"
       style="fill:#231f20;fill-opacity:1;fill-rule:nonzero;stroke:none" /><path
       d="M 501.07457,-54.932118 C 496.1937,-48.939855 495.97606,-37.918538 500.33364,-16.880789 C 507.28911,16.748121 517.35185,28.098225 540.19099,28.098225 C 549.3183,28.098225 555.72734,25.921746 559.22823,21.62899 C 561.49269,18.855137 562.6365,15.062507 562.66429,10.315932 C 562.67818,7.7273114 562.36328,4.8469503 561.71034,1.7026334 C 561.71034,1.7026334 561.11297,-1.168466 560.77955,-2.7938787 C 558.9226,-2.7938787 541.52929,-2.7938787 541.52929,-2.7938787 C 541.52929,-2.7938787 542.95558,6.3843778 542.94169,8.4080398 C 542.92779,10.686396 542.83981,11.918191 541.96922,13.06663 C 541.06621,14.256747 539.72791,15.210693 537.62089,15.210693 C 529.1141,15.210693 526.31709,7.1067834 521.47327,-16.3112 C 517.70843,-34.487111 516.36549,-42.831823 519.26901,-46.397543 C 520.37114,-47.740477 522.02897,-48.39342 524.35826,-48.39342 C 531.05904,-48.39342 533.6986,-42.651221 537.06519,-26.670312 C 538.91288,-26.670312 553.70831,-26.670312 556.45901,-26.670312 C 556.07465,-28.522634 555.44023,-31.578966 555.44023,-31.578966 C 551.36049,-51.287674 539.81126,-61.285583 521.10281,-61.285583 C 510.9706,-61.285583 504.60788,-59.25729 501.07457,-54.932118"
       id="path169"
       style="fill:#231f20;fill-opacity:1;fill-rule:nonzero;stroke:none" /><path
       d="M 819.15997,27.755545 L 825.0272,27.755545 L 824.82808,26.820123 L 822.4108,26.820123 L 820.67425,18.415211 L 819.64158,18.415211 L 821.37813,26.820123 L 818.96548,26.820123 L 819.15997,27.755545"
       id="path171"
       style="fill:#231f20;fill-opacity:1;fill-rule:nonzero;stroke:none" /><path
       d="M 832.12623,27.755545 L 833.9415,27.755545 L 832.01046,18.415211 L 830.97779,18.415211 L 832.56615,26.111609 C 832.64951,26.509859 832.75602,26.894216 832.81159,27.292465 L 832.78843,27.292465 C 832.56152,26.74603 832.40408,26.398719 832.242,26.037517 L 828.70869,18.415211 L 827.4769,18.415211 L 827.12033,26.148656 C 827.1018,26.472812 827.08791,26.783076 827.08791,27.292465 L 827.06013,27.292465 C 826.97677,26.894216 826.91657,26.486705 826.83322,26.083825 L 825.24948,18.415211 L 824.21681,18.415211 L 826.14786,27.755545 L 827.97703,27.755545 L 828.29655,20.466657 C 828.31507,20.068408 828.28729,19.684051 828.20857,19.082047 L 828.23635,19.082047 C 828.39843,19.55902 828.55588,20.017469 828.76426,20.48055 L 832.12623,27.755545"
       id="path173"
       style="fill:#231f20;fill-opacity:1;fill-rule:nonzero;stroke:none" /><path
       d="M 749.42467,13.802928 C 750.95747,49.247114 708.21976,75.855722 668.33464,67.580473 C 628.46803,59.309854 609.19925,24.601967 604.16093,13.877021 L 610.68111,13.877021 C 619.41018,28.556675 628.24575,39.953087 643.30976,44.194905 C 652.87701,46.894664 660.39281,46.274137 678.8975,35.952071 C 687.42282,31.196234 706.71012,16.896306 727.43298,14.039099 C 736.43063,12.798044 749.42467,13.802928 749.42467,13.802928"
       id="path175"
       style="fill:#008350;fill-opacity:1;fill-rule:nonzero;stroke:none" /></g></svg>