<?xml version="1.0" encoding="utf-8"?>
<!-- Generator: Adobe Illustrator 15.0.0, SVG Export Plug-In . SVG Version: 6.00 Build 0)  -->
<!DOCTYPE svg PUBLIC "-//W3C//DTD SVG 1.0//EN" "http://www.w3.org/TR/2001/REC-SVG-20010904/DTD/svg10.dtd">
<svg version="1.0" id="Layer_1" xmlns="http://www.w3.org/2000/svg" xmlns:xlink="http://www.w3.org/1999/xlink" x="0px" y="0px"
	 width="246.334px" height="42.333px" viewBox="0 0 246.334 42.333" enable-background="new 0 0 246.334 42.333"
	 xml:space="preserve">
<g>
	<path fill-rule="evenodd" clip-rule="evenodd" fill="#1B2F5C" d="M25.664,26.091H9.739V9.956h15.925V26.091z M4.5,31.121h26.402
		V4.717H4.5V31.121z"/>
	<polygon fill-rule="evenodd" clip-rule="evenodd" fill="#1B2F5C" points="25.664,17.919 17.701,12.68 9.739,17.919 17.701,23.368 	
		"/>
	<path fill-rule="evenodd" clip-rule="evenodd" fill="#1B2F5C" d="M219.079,25.462c0,1.048-0.211,2.096-0.84,2.933
		c-0.628,0.631-1.256,1.048-2.304,1.048c-0.839,0-1.468-0.417-1.678-1.257l-0.418-1.256V12.89h-10.478V7.022V6.184
		c0.209-0.42,0.418-0.628,1.048-0.628c0.418-0.21,0.837,0,1.257,0.628l0.419,1.047l0.837,2.934h1.468V5.346
		c-1.885-1.257-3.98-1.467-6.495-0.838c-1.676,0.418-2.724,1.466-3.354,2.934l-0.417,1.886v3.562h-7.545v1.886h2.095l-3.562,9.639
		l-3.143-9.639h2.306V12.89h-9.849v1.886h2.095l6.078,16.974l-1.048,2.724c-0.63,1.467-1.259,2.304-2.096,2.304
		c-1.048,0-1.678-0.837-2.095-2.304l-0.42-2.724h-1.468l-0.419,5.447l1.048,0.839c1.048,0.628,2.096,0.837,3.143,0.628
		c1.259,0,2.307-0.419,3.144-1.467c0.628-0.837,1.468-2.515,2.307-5.028l6.075-17.393h3.354v14.667h-2.516v1.678h10.897v-1.678
		h-3.144V14.775h5.447v11.316l0.629,2.724c0.839,1.887,2.306,2.724,4.61,2.724c1.048,0.211,2.096,0,3.144-0.628l2.724-2.305v2.515
		h6.497v-1.678h-2.307V12.89h-7.334v1.886h2.307V25.462z"/>
	<path fill-rule="evenodd" clip-rule="evenodd" fill="#1B2F5C" d="M55,20.433c0,3.982-1.048,6.498-3.352,7.962l-3.143,1.048h-1.676
		V6.604h3.144V4.717H38.447v1.887h2.933v22.839h-2.933v1.678h18.021V20.433H55z"/>
	<path fill-rule="evenodd" clip-rule="evenodd" fill="#1B2F5C" d="M154.536,16.871c1.048-2.305,2.726-3.563,4.61-4.191
		c1.048-0.21,1.887-0.21,2.515,0v6.496h-1.256c-0.211-2.305-1.048-3.562-2.516-3.353c-1.258,0.21-2.095,1.466-2.515,3.562
		l-0.42,3.354v6.704h3.144v1.678h-10.687v-1.678h2.516V14.775h-2.516V12.89h7.124V16.871z"/>
	<path fill-rule="evenodd" clip-rule="evenodd" fill="#1B2F5C" d="M138.611,25.671c-1.048,2.515-2.516,3.771-4.399,3.771h-2.727
		V6.604h2.516c2.095,0.208,3.562,1.466,4.61,3.771c0.839,1.886,1.256,4.4,1.256,7.544C139.867,21.062,139.45,23.787,138.611,25.671z
		 M145.945,16.242c-0.42-3.143-1.467-5.657-3.352-7.752c-1.887-2.305-4.402-3.563-7.545-3.772h-11.945v1.887h2.935v22.839h-2.935
		v1.678h11.945c3.562,0,6.286-1.467,8.382-4.61C145.525,23.368,146.365,20.014,145.945,16.242z"/>
	<path fill-rule="evenodd" clip-rule="evenodd" fill="#1B2F5C" d="M174.443,20.433h-6.704l0.417-3.352
		c0.42-2.095,1.468-3.143,2.935-3.143c1.468,0,2.305,1.048,2.935,3.143L174.443,20.433z M177.378,25.043l-1.257,2.515
		c-1.259,1.676-2.726,2.515-4.401,2.515c-1.677,0-2.933-1.047-3.563-2.934c-0.417-1.048-0.628-2.725-0.628-5.03h11.736
		c0.208-1.466-0.211-3.143-0.839-4.819c-1.468-3.143-3.982-4.819-7.543-5.029c-2.727-0.21-4.821,1.047-6.287,3.353
		c-1.887,2.724-2.515,5.448-1.887,8.591c0.42,1.887,1.257,3.773,2.724,5.238c1.468,1.468,3.354,2.307,5.658,2.307l3.563-0.629
		c2.304-1.048,3.771-3.143,4.399-6.077H177.378z"/>
	<path fill-rule="evenodd" clip-rule="evenodd" fill="#1B2F5C" d="M101.312,4.508c0.837,0,1.677,0.209,2.305,0.838
		c0.628,0.628,0.839,1.258,0.839,2.305c0,0.838-0.211,1.466-0.839,2.096c-0.628,0.628-1.468,0.838-2.305,0.838
		c-0.839,0-1.467-0.209-2.095-0.838c-0.629-0.629-0.84-1.257-0.84-2.096c0-1.047,0.211-1.677,0.84-2.305
		C99.845,4.717,100.473,4.508,101.312,4.508z"/>
	<path fill-rule="evenodd" clip-rule="evenodd" fill="#1B2F5C" d="M87.9,25.462c0,1.048-0.209,2.096-0.838,2.933
		c-0.63,0.631-1.258,1.048-2.306,1.048c-0.837,0-1.468-0.417-1.676-1.257l-0.42-1.256V12.89h-7.334v1.886h2.306v11.316l0.629,2.724
		c0.837,1.887,2.304,2.724,4.61,2.724c1.048,0.211,2.096,0,3.144-0.628l2.724-2.305v2.515h17.392v-1.678h-2.304V12.89h-7.335v1.886
		h2.305v14.667H92.93V12.89h-7.334v1.886H87.9V25.462z"/>
	<path fill-rule="evenodd" clip-rule="evenodd" fill="#1B2F5C" d="M70.088,21.9c0,5.447-1.047,8.173-3.352,8.173
		c-2.307,0-3.354-2.726-3.354-8.173c0-5.448,1.047-8.172,3.354-8.172C69.041,13.728,70.088,16.452,70.088,21.9z M66.736,12.261
		c-2.724,0-4.819,1.047-6.497,3.143c-1.465,1.886-2.096,3.981-2.096,6.705c0,2.515,0.63,4.61,2.096,6.497
		c1.467,2.096,3.562,3.144,6.286,3.144c2.726,0,4.821-1.048,6.497-3.144c1.468-1.887,2.096-3.982,2.096-6.497
		c0-2.724-0.628-4.819-2.096-6.705C71.556,13.308,69.46,12.261,66.736,12.261z"/>
	<path fill-rule="evenodd" clip-rule="evenodd" fill="#1B2F5C" d="M115.98,29.443c-0.211,0.211-0.839,0.42-1.468,0.63l-2.304-0.419
		c-1.678-0.628-2.726-2.515-3.144-5.239h-1.259v6.706l4.191,0.629c5.238,0.208,8.173-1.259,9.221-4.402
		c0.629-2.304,0.209-3.979-1.258-5.027c-1.048-1.048-2.725-1.887-5.239-2.935c-2.096-0.628-3.144-1.886-2.933-3.352
		c0.209-1.467,1.048-2.305,2.724-2.096c1.677,0,2.935,0.838,3.771,2.514l0.839,2.515h1.257V12.89l-5.867-0.629
		c-1.887,0-3.562,0.629-4.819,1.886c-1.258,1.047-1.887,2.305-2.095,4.191c0,1.257,0.628,2.305,1.676,3.143
		c1.048,1.047,2.515,1.676,3.982,2.306c1.676,0.837,2.724,1.466,3.352,2.096c0.42,0.628,0.628,1.257,0.42,2.096L115.98,29.443z"/>
	<path fill-rule="evenodd" clip-rule="evenodd" fill="#1B2F5C" d="M229.557,14.146c-1.048,1.047-1.679,2.515-1.679,4.191
		c0,1.257,0.42,2.305,1.468,3.143c1.047,0.839,2.306,1.676,3.981,2.306c1.677,0.837,2.725,1.466,3.353,2.096
		c0.419,0.628,0.419,1.257,0.211,2.096l-0.839,1.465l-1.468,0.63l-2.304-0.419c-1.677-0.628-2.724-2.515-3.144-5.239h-1.259v6.706
		l4.191,0.629c5.029,0.208,7.964-1.259,9.012-4.402c0.629-2.095,0.418-3.771-1.048-5.027c-1.047-1.048-2.935-1.887-5.238-2.935
		c-2.096-0.628-3.144-1.886-2.935-3.352c0.209-1.467,1.048-2.305,2.724-2.096c1.468,0,2.724,0.838,3.771,2.514l0.631,2.515h1.465
		V12.89l-5.867-0.629C232.699,12.261,231.021,12.89,229.557,14.146z"/>
</g>
</svg>
