<?xml version="1.0" encoding="UTF-8" standalone="no"?>
<svg
   xmlns:dc="http://purl.org/dc/elements/1.1/"
   xmlns:cc="http://creativecommons.org/ns#"
   xmlns:rdf="http://www.w3.org/1999/02/22-rdf-syntax-ns#"
   xmlns:svg="http://www.w3.org/2000/svg"
   xmlns="http://www.w3.org/2000/svg"
   xmlns:sodipodi="http://sodipodi.sourceforge.net/DTD/sodipodi-0.dtd"
   xmlns:inkscape="http://www.inkscape.org/namespaces/inkscape"
   id="Logo"
   enable-background="new 0 0 720 720"
   viewBox="0 0 700 700"
   version="1.1"
   sodipodi:docname="p&amp;g-logo.svg"
   width="700"
   height="700"
   inkscape:version="0.92.4 (5da689c313, 2019-01-14)"
   inkscape:export-filename="G:\Users\suitedoalex\sites\p&amp;g-logo-0.png"
   inkscape:export-xdpi="561.73999"
   inkscape:export-ydpi="561.73999">
  <metadata
     id="metadata109">
    <rdf:RDF>
      <cc:Work
         rdf:about="">
        <dc:format>image/svg+xml</dc:format>
        <dc:type
           rdf:resource="http://purl.org/dc/dcmitype/StillImage" />
        <dc:title></dc:title>
      </cc:Work>
    </rdf:RDF>
  </metadata>
  <sodipodi:namedview
     pagecolor="#ffffff"
     bordercolor="#666666"
     borderopacity="1"
     objecttolerance="10"
     gridtolerance="10"
     guidetolerance="10"
     inkscape:pageopacity="0"
     inkscape:pageshadow="2"
     inkscape:window-width="1600"
     inkscape:window-height="837"
     id="namedview107"
     showgrid="false"
     inkscape:zoom="0.32777778"
     inkscape:cx="359.83205"
     inkscape:cy="360.79396"
     inkscape:window-x="-8"
     inkscape:window-y="-8"
     inkscape:window-maximized="1"
     inkscape:current-layer="Logo" />
  <radialGradient
     id="SVGID_1_"
     cx="156.09"
     cy="143.71001"
     r="661.27002"
     gradientTransform="matrix(0.60743515,0,0,0.60743515,131.33052,131.33051)"
     gradientUnits="userSpaceOnUse">
    <stop
       offset="0"
       stop-color="#00a1df"
       id="stop2" />
    <stop
       offset=".13"
       stop-color="#0092d7"
       id="stop4" />
    <stop
       offset=".37"
       stop-color="#006cc1"
       id="stop6" />
    <stop
       offset=".62"
       stop-color="#003da6"
       id="stop8" />
    <stop
       offset=".73"
       stop-color="#043799"
       id="stop10" />
    <stop
       offset=".93"
       stop-color="#102777"
       id="stop12" />
    <stop
       offset="1"
       stop-color="#152169"
       id="stop14" />
  </radialGradient>
  <circle
     cx="350"
     cy="350"
     r="215.08473"
     id="circle17"
     style="fill:url(#SVGID_1_);stroke-width:0.59745759"
     inkscape:export-filename="G:\Users\suitedoalex\sites\p&amp;g-logo-4.png"
     inkscape:export-xdpi="89.267143"
     inkscape:export-ydpi="89.267143" />
  <radialGradient
     id="SVGID_2_"
     cx="107.95"
     cy="60.5"
     r="1096.4301"
     gradientTransform="matrix(0.60743515,0,0,0.60743515,131.33052,131.33051)"
     gradientUnits="userSpaceOnUse">
    <stop
       offset=".02"
       stop-color="#fff"
       id="stop19" />
    <stop
       offset=".03"
       stop-color="#fbfeff"
       id="stop21" />
    <stop
       offset=".09"
       stop-color="#bae7f9"
       id="stop23" />
    <stop
       offset=".14"
       stop-color="#87d5f4"
       id="stop25" />
    <stop
       offset=".19"
       stop-color="#63c9f1"
       id="stop27" />
    <stop
       offset=".23"
       stop-color="#4cc1ef"
       id="stop29" />
    <stop
       offset=".26"
       stop-color="#44beee"
       id="stop31" />
    <stop
       offset=".28"
       stop-color="#37b8eb"
       id="stop33" />
    <stop
       offset=".35"
       stop-color="#19ace5"
       id="stop35" />
    <stop
       offset=".41"
       stop-color="#07a4e0"
       id="stop37" />
    <stop
       offset=".45"
       stop-color="#00a1df"
       id="stop39" />
    <stop
       offset=".79"
       stop-color="#0045ab"
       id="stop41" />
    <stop
       offset=".82"
       stop-color="#003da6"
       id="stop43" />
    <stop
       offset=".96"
       stop-color="#0059b6"
       id="stop45" />
  </radialGradient>
  <path
     d="m 192.03221,349.94026 c 0,-98.52076 62.19534,-182.5233 149.48389,-214.84576 -114.83135,4.48093 -206.60084,98.93898 -206.60084,214.90551 0,116.08601 91.94873,210.66355 206.95932,214.9055 C 254.46653,532.6428 192.03221,448.58051 192.03221,349.94026 Z"
     id="path48"
     inkscape:connector-curvature="0"
     style="fill:url(#SVGID_2_);stroke-width:0.59745759"
     inkscape:export-filename="G:\Users\suitedoalex\sites\p&amp;g-logo-4.png"
     inkscape:export-xdpi="89.267143"
     inkscape:export-ydpi="89.267143" />
  <defs
     id="defs53">
    <filter
       id="Adobe_OpacityMaskFilter"
       width="346.39999"
       height="719.40002"
       x="0"
       y="0.30000001"
       filterUnits="userSpaceOnUse">
      <feColorMatrix
         values="1 0 0 0 0 0 1 0 0 0 0 0 1 0 0 0 0 0 1 0"
         id="feColorMatrix50" />
    </filter>
  </defs>
  <mask
     id="SVGID_3_"
     width="346.4"
     height="719.4"
     x="0"
     y=".3"
     maskUnits="userSpaceOnUse">
    <g
       id="g82"
       style="filter:url(#Adobe_OpacityMaskFilter)">
      <radialGradient
         id="SVGID_4_"
         cx="302.95001"
         cy="349.20999"
         r="381.37"
         fx="2.1800001"
         fy="354.32999"
         gradientTransform="matrix(0.03136,-1.0162,1.0341,0.03192,-68.63,645.74)"
         gradientUnits="userSpaceOnUse">
        <stop
           offset=".1"
           stop-color="#fff"
           id="stop55" />
        <stop
           offset=".35"
           stop-color="#fdfdfd"
           id="stop57" />
        <stop
           offset=".45"
           stop-color="#f6f6f6"
           id="stop59" />
        <stop
           offset=".51"
           stop-color="#eaeaea"
           id="stop61" />
        <stop
           offset=".57"
           stop-color="#d9d9d9"
           id="stop63" />
        <stop
           offset=".62"
           stop-color="#c3c3c3"
           id="stop65" />
        <stop
           offset=".66"
           stop-color="#a7a7a7"
           id="stop67" />
        <stop
           offset=".7"
           stop-color="#868686"
           id="stop69" />
        <stop
           offset=".73"
           stop-color="#606060"
           id="stop71" />
        <stop
           offset=".77"
           stop-color="#353535"
           id="stop73" />
        <stop
           offset=".8"
           stop-color="#060606"
           id="stop75" />
        <stop
           offset=".8"
           id="stop77" />
      </radialGradient>
      <path
         d="M 95.6,359.9 C 95.6,195 199.7,54.4 345.8,0.3 153.6,7.8 0,165.9 0,360 0,554.3 153.9,712.6 346.4,719.7 200.1,665.7 95.6,525 95.6,359.9 Z"
         id="path80"
         inkscape:connector-curvature="0"
         style="fill:url(#SVGID_4_)" />
    </g>
  </mask>
  <radialGradient
     id="SVGID_5_"
     cx="281.35999"
     cy="290.89999"
     r="445.48999"
     gradientTransform="matrix(1.0167,0,0,1.0167,-6,-6)"
     gradientUnits="userSpaceOnUse">
    <stop
       offset=".32"
       stop-color="#44beee"
       stop-opacity="0"
       id="stop85" />
    <stop
       offset=".48"
       stop-color="#2b99d9"
       stop-opacity=".27"
       id="stop87" />
    <stop
       offset=".67"
       stop-color="#1476c6"
       stop-opacity=".58"
       id="stop89" />
    <stop
       offset=".82"
       stop-color="#0561ba"
       stop-opacity=".84"
       id="stop91" />
    <stop
       offset=".92"
       stop-color="#0059b6"
       id="stop93" />
  </radialGradient>
  <path
     d="M 95.6,359.9 C 95.6,195 199.7,54.4 345.8,0.3 153.6,7.8 0,165.9 0,360 0,554.3 153.9,712.6 346.4,719.7 200.1,665.7 95.6,525 95.6,359.9 Z"
     mask="url(#SVGID_3_)"
     id="path96"
     inkscape:connector-curvature="0"
     style="fill:url(#SVGID_5_)"
     transform="matrix(0.59745762,0,0,0.59745762,134.91526,134.91526)"
     inkscape:export-filename="G:\Users\suitedoalex\sites\p&amp;g-logo-4.png"
     inkscape:export-xdpi="89.267143"
     inkscape:export-ydpi="89.267143" />
  <g
     id="g104"
     transform="matrix(0.59745762,0,0,0.59745762,134.91526,134.91526)"
     inkscape:export-filename="G:\Users\suitedoalex\sites\p&amp;g-logo-4.png"
     inkscape:export-xdpi="89.267143"
     inkscape:export-ydpi="89.267143">
    <path
       d="M 353.9,325.7 C 377.8,266.8 333.1,250.8 304,250.8 h -96.4 c 8,5.5 6.7,12.8 5.1,17.3 l -56.2,179.5 c -2.2,7.1 -10.6,14.6 -15.1,15.7 h 78 c -4.3,-0.8 -10.4,-6.9 -8.2,-15.2 l 20.4,-64.9 c 0.1,0 93.9,12.7 122.3,-57.5 z m -75.8,-58.4 c 10.2,0 38.5,1.4 20.2,54.9 -19.1,56.2 -61.5,44.6 -61.5,44.6 L 268,267.3 Z"
       id="path98"
       inkscape:connector-curvature="0"
       style="fill:#ffffff" />
    <path
       d="m 416.3,463.4 h 52.5 C 452,458 427.2,442.1 417.3,430.8 c 8,-8.7 17.9,-19.7 19.7,-42 h -27.2 c 0,0 5.2,3 5.2,9.4 0,5.9 -2.4,14.1 -7,19.8 -8,-11.8 -16.5,-25.3 -19.5,-45.1 10.7,-5.3 25.7,-11.1 37.6,-21.5 11.3,-9.9 13.9,-19.3 14.1,-25.4 v -0.8 c 0,-6.4 -2.5,-12.4 -7.1,-16.9 -7.9,-7.8 -20.3,-11 -33.4,-8.6 -10.5,2 -19.4,7.6 -23.9,11.7 -15.8,14.9 -17.8,39.4 -17.8,50.5 0,2.7 0.1,4.7 0.2,5.9 -0.9,0.4 -2.5,1 -2.5,1 -11.6,4.3 -42.5,12.5 -53.5,37.9 -1.4,3.2 -3.4,10.2 -3.4,18.3 0,7 1.5,14.8 6,21.9 7.8,12.2 21,19.9 42.2,19.5 23,-0.4 45.7,-16.1 49.7,-19 3.9,3.7 14.2,13.4 19.6,16 z m 0,-142 c -2.7,17.1 -24.9,34.4 -30.3,36.7 -1,-9.6 -0.5,-24.8 7.5,-37.2 5.3,-8.2 12.4,-11.8 18.1,-9.8 4.6,1.6 5.1,5.8 4.7,10.3 z m -30.8,114.4 c -3.1,1.9 -15.3,8.1 -26.7,9.2 -10.6,1 -28.2,-3.1 -28.1,-24.3 0,-18.1 19.7,-31.4 30.4,-36 4.3,17.5 14,37.3 24.4,51.1 z"
       id="path100"
       inkscape:connector-curvature="0"
       style="fill:#ffffff" />
    <path
       d="m 575.8,267.5 c 31.2,-7.5 56.9,16.9 59.2,18.6 l 8.9,-28.3 c -12.3,-3.7 -101.8,-34 -165.1,38.2 -38.9,44.4 -48.4,135.4 0.9,159.8 52.8,26.1 111.1,-4 115.4,-6.1 l 24.1,-76.8 c 2.6,-9.3 8.5,-15.3 18.9,-19.2 h -83.8 c 12.2,5.1 11.3,14.3 10.4,18.1 l -24.1,76.8 c -3.2,0.6 -70.6,17.4 -32.9,-100.5 8.3,-25.3 31,-71.7 68.1,-80.6 z"
       id="path102"
       inkscape:connector-curvature="0"
       style="fill:#ffffff" />
  </g>
</svg>
