<?xml version="1.0" encoding="UTF-8"?>
<!DOCTYPE svg PUBLIC "-//W3C//DTD SVG 1.1//EN" "http://www.w3.org/Graphics/SVG/1.1/DTD/svg11.dtd">
<svg xmlns="http://www.w3.org/2000/svg" version="1.1" width="370" height="370">
<g style="fill:#ffffff;stroke:#85bdde;stroke-width:15">
<circle cx="185" cy="185" r="177.5" />
<circle cx="185" cy="185" r="147.5" />
</g>
<path d="m 185,56 c -8,0 -16,1 -23,2 l 0,253 c 8,1 15,2 23,2 1,0 2,0 2,0 l 0,-105 26,0 c 8,0 13,-15 13,-15 l 0,-118 c 0,-6 -4,-11 -9,-14 -11,-3 -22,-4 -34,-4 z m -33,4 c -10,3 -20,7 -30,12 l -23,81 c 0,-1 -10,-27 -17,-46 -6,8 -11,16 -15,25 l 25,62 0,80 c 8,8 16,15 25,20 l 0,-106 34,-128 z m 92,10 0,229 c 9,-5 17,-10 25,-17 l 0,-78 44,0 c 1,-6 1,-13 1,-20 0,-1 0,-1 0,-2 l -44,0 0,-52 c 12,9 15,33 15,33 l 27,0 C 305,122 279,88 243,70 z m -57,14 6,0 4,0 c 4,0 4,6 4,6 l 0,84 c 0,4 -4,5 -4,5 l -11,0 0,-96 z" />
</svg>
